Titolo: A V - Bossa N' Ramones

Artista: Artisti Vari

Titolo: Bossa N'Ramones

Genere: Electrobossa

Data di uscita: 07/2008

Casa discografica: Pmb

Durata: 75:32


1.Intro(0:31)
2.Here Today, Gone Tomorrow [Cherry Mix](3:29)
3.I Wanna Be Your Boyfriend(2:46)
4.I Just Want to Have Something to Do [12" Mambo Mix](2:40)
5.She's a Sensation(3:57)
6.Poison Heart [Secret Agent Mix](4:31)
7.Beat on the Brat(4:08)
8.I Wanna Be Sedated(3:56)
9.Sheena Is a Punk Rocker [Soul Flower Mix](3:20)
10.Rockaway Beach(3:37)
11.Pet Sematary [Electro Groove Version](4:15)
12.Blitzkreig Bop [Cuban Ganja Mix](3:59)
13.K.K.K. Took My Baby Away(3:33)
14.Outro(30:46)



Bossa N'Ramones, l'album che mette la canzone dei creatori del punk rock in un luogo diverso, pieno di finezza, eleganza e fantasia.
Registrato in tutto il mondo, l'album vede la partecipazione vocale stellare di artisti importanti come Cherie Currie, ex cantante dei The Runaways (glam band tutta al femminile che è servito come ispirazione diretta per il punk rock), Angie Bowie (cantante, attrice e scrittrice L'ex moglie di David Bowie e creatore del concetto di glam rock) e Yasmin da Dirty Princess Gate integrale, il duo esplosivo electroclash europeo che rende ogni spettacolo un esperienza autentica e irriverente.
Bossa N'Ramones presenta nuove sfide, estendendo ulteriormente il loro vocabolario, questa immersione tempo per motivi di spazio e l'età degli anni Sessanta latino, per un singolo disco con un suono completamente nuovo.Buon ascolto.

Exact Audio Copy V1.0 beta 1 from 15. November 2010

EAC extraction logfile from 15. July 2011, 1:36

- / Bossa n'Ramones

Used drive : HL-DT-STDVDRAM GSA-T40N Adapter: 0 ID: 0

Read mode : Secure
Utilize accurate stream : Yes
Defeat audio cache : No
Make use of C2 pointers : Yes

Read offset correction : 667
Overread into Lead-In and Lead-Out : No
Fill up missing offset samples with silence : Yes
Delete leading and trailing silent blocks : No
Null samples used in CRC calculations : No
Used interface : Native Win32 interface for Win NT & 2000

Used output format : User Defined Encoder
Selected bitrate : 768 kBit/s
Quality : High
Add ID3 tag : No
Command line compressor : c:\Users\leomarco\Contacts\Desktop\Exact Audio Copy\FLAC\FLAC.EXE
Additional command line options : -6 -V -T "ARTIST=%a" -T "TITLE=%t" -T "ALBUM=%g" -T "DATE=%y" -T "TRACKNUMBER=%n" -T "GENRE=%m" -T "COMMENT=%e" %j--picture="%i"%j %s -o %d


TOC of the extracted CD

Track | Start | Length | Start sector | End sector
---------------------------------------------------------
1 | 0:00.00 | 0:31.14 | 0 | 2338
2 | 0:31.14 | 3:29.24 | 2339 | 18037
3 | 4:00.38 | 2:46.04 | 18038 | 30491
4 | 6:46.42 | 2:40.02 | 30492 | 42493
5 | 9:26.44 | 3:57.05 | 42494 | 60273
6 | 13:23.49 | 4:31.45 | 60274 | 80643
7 | 17:55.19 | 4:08.00 | 80644 | 99243
8 | 22:03.19 | 3:56.03 | 99244 | 116946
9 | 25:59.22 | 3:20.69 | 116947 | 132015
10 | 29:20.16 | 3:37.00 | 132016 | 148290
11 | 32:57.16 | 4:15.06 | 148291 | 167421
12 | 37:12.22 | 3:59.21 | 167422 | 185367
13 | 41:11.43 | 3:33.01 | 185368 | 201343
14 | 44:44.44 | 30:46.01 | 201344 | 339794


Range status and errors

Selected range

Filename C:\Users\leomarco\Contacts\Desktop\Bossa n'Ramones.wav

Peak level 100.0 %
Extraction speed 2.0 X
Range quality 98.8 %
Test CRC 7AA56123
Copy CRC 7AA56123
Copy OK

No errors occurred

End of status report

==== Log checksum 4ADD476B972D62FD86D2C8D22C5594E7040440EF90ABE633247A956B2630E64F ====



Per i primi 10: 24 su 24:50/60 Kb/s

